<?xml version="1.0" encoding="iso-8859-1"?>
<!-- Generator: Adobe Illustrator 19.0.0, SVG Export Plug-In . SVG Version: 6.00 Build 0)  -->
<svg xmlns="http://www.w3.org/2000/svg" xmlns:xlink="http://www.w3.org/1999/xlink" version="1.1" id="Capa_1" x="0px" y="0px" viewBox="0 0 512 512" style="enable-background:new 0 0 512 512;" xml:space="preserve" width="512px" height="512px">
<g>
	<g>
		<polygon points="256,405.312 256,405.333 266.667,405.333   " fill="#1f4e79"/>
	</g>
</g>
<g>
	<g>
		<path d="M330.667,277.333v64h64v-64H330.667z M362.667,320c-5.888,0-10.667-4.779-10.667-10.667s4.779-10.667,10.667-10.667    c5.888,0,10.667,4.779,10.667,10.667S368.555,320,362.667,320z" fill="#1f4e79"/>
	</g>
</g>
<g>
	<g>
		<path d="M498.219,259.115l-39.552-39.531V160c0-2.837-1.131-5.547-3.115-7.552l-18.219-18.197V74.667    c0-2.837-1.131-5.547-3.115-7.552l-64-64C368.213,1.131,365.504,0,362.667,0h-85.333c-2.837,0-5.547,1.131-7.552,3.115L256,16.917    L242.219,3.136C240.213,1.131,237.504,0,234.667,0h-85.333c-2.837,0-5.547,1.131-7.552,3.115l-64,64    c-1.984,2.005-3.115,4.715-3.115,7.552v59.584l-18.219,18.197c-1.984,2.005-3.115,4.715-3.115,7.552v59.584l-39.552,39.552    c-1.984,1.984-3.115,4.693-3.115,7.531v170.667c0,2.837,1.131,5.547,3.115,7.552l64,64c2.005,1.984,4.715,3.115,7.552,3.115    h149.333c2.837,0,5.547-1.131,7.552-3.115L256,495.104l13.781,13.781c2.005,1.984,4.715,3.115,7.552,3.115h149.333    c2.837,0,5.547-1.131,7.552-3.115l64-64c1.984-2.005,3.115-4.715,3.115-7.552V266.667    C501.333,263.829,500.203,261.12,498.219,259.115z M291.115,45.781c4.16-4.16,10.923-4.16,15.083,0l39.552,39.552H384    c5.888,0,10.667,4.779,10.667,10.667s-4.779,10.667-10.667,10.667h-42.667c-2.837,0-5.547-1.131-7.552-3.115l-42.667-42.667    C286.955,56.704,286.955,49.963,291.115,45.781z M269.781,88.448c4.16-4.16,10.923-4.16,15.083,0l42.667,42.667    c2.005,2.005,3.136,4.715,3.136,7.552v42.667c0,2.837-1.131,5.547-3.115,7.552l-21.333,21.333    c-2.091,2.069-4.821,3.115-7.552,3.115s-5.461-1.045-7.552-3.115c-4.16-4.16-4.16-10.923,0-15.083l18.219-18.219v-33.835    l-39.552-39.552C265.621,99.371,265.621,92.629,269.781,88.448z M141.781,67.115l21.333-21.333c4.16-4.16,10.923-4.16,15.083,0    c4.16,4.16,4.16,10.923,0,15.083l-21.333,21.333c-2.069,2.091-4.8,3.136-7.531,3.136s-5.461-1.045-7.552-3.115    C137.621,78.037,137.621,71.296,141.781,67.115z M128,106.667h38.251l60.885-60.885c4.16-4.16,10.923-4.16,15.083,0    c4.16,4.16,4.16,10.923,0,15.083l-64,64c-2.005,2.005-4.715,3.136-7.552,3.136H128c-5.888,0-10.667-4.779-10.667-10.667    S122.112,106.667,128,106.667z M128,149.333h42.667c2.837,0,5.547,1.131,7.552,3.115l42.667,42.667    c1.984,2.005,3.115,4.715,3.115,7.552v106.667c0,5.888-4.779,10.667-10.667,10.667s-10.667-4.779-10.667-10.667V207.083    l-36.416-36.416H128c-5.888,0-10.667-4.779-10.667-10.667S122.112,149.333,128,149.333z M74.667,292.416v166.251    c0,5.888-4.779,10.667-10.667,10.667s-10.667-4.779-10.667-10.667V288c0-2.837,1.131-5.547,3.115-7.552l51.264-51.264    c-0.427-1.685-1.045-3.349-1.045-5.184c0-11.755,9.557-21.333,21.333-21.333s21.333,9.579,21.333,21.333    s-9.557,21.333-21.333,21.333c-1.835,0-3.499-0.619-5.205-1.045L74.667,292.416z M156.885,487.552    c-2.091,2.069-4.821,3.115-7.552,3.115s-5.461-1.045-7.552-3.115l-42.667-42.667C97.131,442.88,96,440.171,96,437.333v-128    c0-2.837,1.131-5.547,3.115-7.552l21.333-21.333c4.16-4.16,10.923-4.16,15.083,0c4.16,4.16,4.16,10.923,0,15.083l-18.197,18.219    v119.168l39.552,39.552C161.045,476.629,161.045,483.371,156.885,487.552z M220.885,487.552c-2.091,2.069-4.821,3.115-7.552,3.115    c-2.731,0-5.461-1.045-7.552-3.115l-64-64c-1.984-2.005-3.115-4.715-3.115-7.552v-85.333c0-2.837,1.131-5.547,3.115-7.552    L160,304.917v-38.251c0-5.888,4.779-10.667,10.667-10.667s10.667,4.779,10.667,10.667v42.667c0,2.837-1.131,5.547-3.115,7.552    L160,335.083v76.501l60.885,60.885C225.045,476.629,225.045,483.371,220.885,487.552z M263.552,466.219    c-2.091,2.069-4.821,3.115-7.552,3.115c-2.731,0-5.461-1.045-7.552-3.115l-64-64c-1.984-2.005-3.115-4.715-3.115-7.552v-21.333    c0-3.563,1.792-6.891,4.757-8.875l59.243-39.509V164.416l-5.461-5.461c-1.707,0.427-3.371,1.045-5.205,1.045    c-11.776,0-21.333-9.579-21.333-21.333c0-11.755,9.557-21.333,21.333-21.333S256,126.912,256,138.667    c0,1.835-0.619,3.499-1.045,5.205l8.597,8.597c1.984,1.984,3.115,4.693,3.115,7.531v170.667c0,3.563-1.792,6.891-4.757,8.875    l-59.243,39.509v11.2l60.885,60.885C267.712,455.296,267.712,462.037,263.552,466.219z M405.333,469.333h-96    c-2.837,0-5.547-1.131-7.552-3.115l-40.597-40.597c-1.685,0.427-3.349,1.045-5.184,1.045c-11.776,0-21.333-9.579-21.333-21.333    c0-11.755,9.557-21.333,21.333-21.333s21.333,9.579,21.333,21.333c0,1.835-0.619,3.499-1.045,5.205L313.749,448h91.584    c5.888,0,10.667,4.779,10.667,10.667S411.221,469.333,405.333,469.333z M448,426.667H341.333c-2.837,0-5.547-1.131-7.552-3.115    l-21.312-21.312c-0.981-0.981-1.771-2.176-2.325-3.477c-0.533-1.323-0.811-2.709-0.811-4.096v-32h-10.667    c-5.888,0-10.667-4.779-10.667-10.667c0-5.888,4.779-10.667,10.667-10.667h10.667V320h-10.667    c-5.888,0-10.667-4.779-10.667-10.667s4.779-10.667,10.667-10.667h10.667v-21.333h-10.667c-5.888,0-10.667-4.779-10.667-10.667    S292.779,256,298.667,256h10.667v-10.667c0-5.888,4.779-10.667,10.667-10.667s10.667,4.779,10.667,10.667V256H352v-96    c0-2.837,1.131-5.547,3.115-7.552l21.333-21.333c4.16-4.16,10.923-4.16,15.083,0c4.16,4.16,4.16,10.923,0,15.083l-18.197,18.219    V256h21.333v-74.667c0-5.888,4.779-10.667,10.667-10.667S416,175.445,416,181.333V256h10.667c5.888,0,10.667,4.779,10.667,10.667    s-4.779,10.667-10.667,10.667H416v21.333h10.667c5.888,0,10.667,4.779,10.667,10.667S432.555,320,426.667,320H416v21.333h10.667    c5.888,0,10.667,4.779,10.667,10.667c0,5.888-4.779,10.667-10.667,10.667H416v10.667c0,5.888-4.779,10.667-10.667,10.667    s-10.667-4.779-10.667-10.667v-10.667h-21.333v10.667c0,5.888-4.779,10.667-10.667,10.667c-5.888,0-10.667-4.779-10.667-10.667    v-10.667h-21.333v27.584l15.083,15.083H448c5.888,0,10.667,4.779,10.667,10.667C458.667,421.888,453.888,426.667,448,426.667z" fill="#1f4e79"/>
	</g>
</g>
<g>
</g>
<g>
</g>
<g>
</g>
<g>
</g>
<g>
</g>
<g>
</g>
<g>
</g>
<g>
</g>
<g>
</g>
<g>
</g>
<g>
</g>
<g>
</g>
<g>
</g>
<g>
</g>
<g>
</g>
</svg>
