<?xml version="1.0" standalone="no"?>
<!DOCTYPE svg PUBLIC "-//W3C//DTD SVG 20010904//EN"
 "http://www.w3.org/TR/2001/REC-SVG-20010904/DTD/svg10.dtd">
<svg version="1.0" xmlns="http://www.w3.org/2000/svg"
 width="1477pt" height="740pt" viewBox="0 0 1477 740"
 preserveAspectRatio="xMidYMid meet">
<metadata>
Created by potrace 1.8, written by Peter Selinger 2001-2007
</metadata>
<g transform="translate(0,740) scale(0.080000,-0.080000)"
fill="#000000" stroke="none">
<path d="M2025 9225 c-55 -7 -127 -18 -160 -25 -33 -6 -71 -13 -85 -16 -138
-27 -399 -122 -545 -200 -79 -41 -217 -124 -225 -133 -3 -3 -31 -24 -63 -46
-137 -93 -331 -277 -440 -417 -33 -42 -64 -75 -70 -71 -6 3 -7 1 -3 -6 4 -6
-5 -28 -22 -49 -16 -20 -46 -66 -68 -102 -21 -36 -41 -67 -44 -70 -14 -14
-122 -247 -153 -330 -62 -167 -118 -395 -134 -552 -10 -92 -11 -4956 -1 -5058
7 -73 20 -159 32 -210 3 -14 8 -36 11 -50 2 -14 9 -41 14 -60 5 -19 13 -46 16
-60 22 -79 47 -154 75 -225 41 -105 151 -325 161 -325 5 0 9 -5 9 -11 0 -6 13
-30 30 -54 16 -24 30 -48 30 -53 0 -6 3 -12 8 -14 4 -1 36 -41 72 -88 82 -108
70 -95 175 -203 50 -51 119 -118 155 -148 35 -30 71 -60 78 -67 7 -6 35 -26
60 -44 26 -17 48 -35 50 -40 2 -4 10 -8 17 -8 7 0 15 -3 17 -7 3 -9 27 -23
135 -84 40 -23 73 -45 73 -50 0 -5 12 -9 26 -9 16 0 23 -4 18 -12 -4 -6 -3 -8
3 -5 6 4 37 -6 69 -21 33 -16 75 -34 94 -41 19 -7 44 -17 55 -22 132 -56 413
-116 620 -134 22 -1 1618 -3 3548 -4 l3507 -1 0 -35 c0 -31 3 -35 25 -35 22 0
25 4 25 35 l0 35 3543 1 c1948 1 3553 2 3567 4 14 1 60 5 102 9 43 4 131 19
195 33 65 14 130 26 145 27 14 0 24 4 21 9 -2 4 3 8 11 8 23 2 23 2 116 33 85
29 127 46 230 94 30 14 58 25 62 24 3 -1 12 5 18 13 7 8 18 15 25 15 7 0 18 7
25 15 7 9 15 13 18 11 2 -3 31 13 63 34 32 22 60 40 63 40 5 0 167 119 229
169 41 32 256 251 283 288 15 21 33 43 38 48 6 6 22 26 36 45 13 19 28 40 32
45 48 58 201 336 248 450 75 182 138 431 158 620 4 39 7 1186 7 2550 0 2597 1
2515 -42 2725 -8 41 -17 84 -19 95 -10 49 -68 233 -89 282 -13 29 -22 53 -20
53 6 0 -124 249 -159 305 -20 30 -36 59 -36 64 0 5 -3 11 -7 13 -5 2 -23 26
-42 53 -126 183 -331 390 -515 521 -50 36 -99 72 -109 80 -9 7 -20 14 -22 14
-3 0 -24 12 -47 26 -52 33 -232 123 -313 157 -114 48 -295 101 -415 123 -25 4
-47 8 -50 9 -3 1 -30 5 -60 10 -30 5 -66 11 -80 14 -14 2 -3238 5 -7165 7
-5781 1 -7159 -1 -7240 -11z m4475 -4555 l0 -4540 -2182 1 c-2381 1 -2290 -1
-2548 60 -160 37 -278 78 -457 160 l-53 24 0 1848 0 1847 23 2 c132 8 264 72
365 176 96 98 134 193 138 344 2 60 -1 110 -7 113 -5 4 -9 14 -9 24 0 10 -16
51 -36 90 -78 156 -244 271 -426 296 l-48 6 0 1923 0 1922 83 37 c75 33 230
93 267 103 8 2 45 12 83 23 37 11 84 22 105 26 20 3 53 10 72 15 19 5 62 12
95 16 33 4 85 10 115 14 30 4 1037 8 2238 9 l2182 1 0 -4540z m5300 0 l0
-4540 -843 0 -844 0 -11 78 c-27 176 -103 317 -247 457 -148 145 -321 225
-560 259 -16 2 -40 5 -52 5 l-23 1 0 1155 c0 1093 1 1155 18 1156 142 6 298
37 423 85 52 19 100 36 107 37 6 0 12 3 12 7 0 3 17 14 38 24 142 67 356 247
441 369 18 26 36 47 41 47 6 0 10 6 10 14 0 8 6 21 13 28 27 30 87 146 130
253 71 176 97 326 92 540 -4 190 -43 370 -116 530 -13 28 -22 53 -21 57 1 3
-5 12 -13 18 -8 7 -15 16 -15 21 0 12 -64 111 -115 178 -52 69 -142 162 -215
223 -54 45 -242 168 -257 168 -4 0 -21 7 -38 16 -104 55 -338 116 -442 116
-13 0 -23 5 -23 11 0 8 -3 8 -11 0 -5 -5 -21 -8 -35 -5 l-24 4 0 1582 0 1582
-25 0 -25 0 0 -1583 0 -1583 -27 -1 c-47 -2 -113 -10 -207 -25 -45 -7 -174
-44 -214 -61 -20 -8 -48 -20 -62 -26 -14 -6 -27 -11 -30 -12 -22 -5 -200 -110
-209 -123 -3 -4 -26 -20 -50 -37 -49 -33 -157 -137 -216 -209 -128 -155 -235
-370 -280 -566 -5 -22 -16 -84 -22 -125 -9 -64 -9 -303 0 -375 10 -71 57 -262
68 -275 5 -5 9 -15 9 -21 0 -28 116 -254 141 -274 3 -3 12 -16 19 -29 14 -28
14 -27 72 -96 48 -56 190 -195 199 -195 3 0 17 -9 30 -21 61 -54 194 -128 321
-178 137 -54 259 -79 441 -90 16 -1 17 -63 17 -1156 l0 -1155 -34 0 c-39 0
-185 -26 -234 -41 -18 -6 -39 -12 -45 -13 -128 -27 -378 -213 -460 -344 -66
-102 -109 -207 -123 -298 -4 -27 -9 -52 -10 -56 -1 -5 -2 -17 -3 -28 -1 -20
-8 -20 -856 -20 l-855 0 0 4540 0 4540 2625 0 2625 0 0 -4540z m4595 4529
c128 -16 141 -18 241 -39 230 -48 463 -135 649 -244 33 -20 67 -39 75 -42 8
-4 38 -23 65 -43 28 -20 70 -50 94 -66 24 -16 45 -35 48 -42 3 -7 10 -13 15
-13 19 0 138 -111 131 -122 -3 -7 -1 -8 5 -4 6 4 40 -24 79 -65 37 -40 75 -80
85 -90 96 -100 317 -446 302 -471 -4 -6 -2 -8 3 -5 10 6 40 -52 41 -77 0 -5 4
-12 9 -15 12 -9 104 -262 118 -324 2 -12 9 -40 14 -62 11 -45 14 -62 38 -190
15 -82 17 -308 19 -2565 3 -2613 4 -2546 -41 -2780 -16 -81 -71 -284 -84 -305
-3 -5 -6 -15 -7 -20 -7 -47 -136 -312 -202 -416 -143 -224 -327 -433 -497
-564 -14 -11 -31 -25 -38 -30 -48 -41 -88 -66 -97 -60 -6 4 -9 1 -8 -5 2 -7
-6 -17 -17 -23 -11 -7 -22 -15 -25 -18 -3 -3 -18 -14 -35 -23 -16 -10 -47 -27
-67 -39 -21 -12 -69 -39 -107 -60 l-70 -37 0 4321 c0 2377 -3 4324 -5 4326
-24 25 -26 -95 -26 -1938 0 -1061 -3 -1929 -7 -1930 -127 -11 -226 -49 -323
-124 -65 -50 -85 -73 -125 -140 -55 -90 -70 -149 -69 -260 2 -135 24 -196 114
-317 19 -26 41 -47 47 -48 7 0 18 -9 25 -20 7 -11 16 -20 20 -20 4 0 26 -13
50 -29 24 -16 77 -39 118 -52 66 -20 87 -24 138 -28 9 -1 12 -382 12 -1871 0
-1489 3 -1870 13 -1870 24 -1 -209 -93 -293 -116 -172 -47 -242 -60 -425 -83
-38 -5 -1077 -10 -2307 -10 l-2238 -1 0 4540 0 4540 2238 -1 c1230 0 2269 -5
2307 -10z m-15165 -4529 c0 -2822 -4 -4270 -10 -4270 -18 0 -230 134 -276 175
-7 6 -24 19 -40 30 -161 115 -377 349 -503 546 -30 46 -61 95 -71 109 -65 98
-197 421 -225 553 -2 10 -6 26 -9 35 -3 9 -7 28 -10 42 -3 14 -8 36 -11 50 -3
14 -13 72 -23 130 -16 98 -17 280 -17 2595 0 1964 3 2507 13 2570 28 178 30
186 58 295 45 169 138 401 211 525 57 97 109 175 115 175 5 0 8 6 8 13 0 7 8
22 18 33 9 10 30 37 46 59 80 109 267 300 365 373 20 15 38 29 41 32 14 15
169 120 178 120 6 0 12 4 14 8 3 9 109 71 120 72 4 0 8 -1921 8 -4270z m7940
701 l0 -577 -44 -13 c-43 -12 -77 -41 -108 -92 -22 -35 -18 -126 8 -170 23
-39 76 -78 117 -86 l27 -5 0 -580 0 -579 -57 6 c-118 10 -160 17 -236 36 -79
20 -186 60 -264 98 -23 12 -47 21 -53 21 -5 0 -10 3 -10 8 0 4 -12 13 -27 19
-62 28 -217 155 -303 249 -45 49 -130 160 -130 170 0 4 -6 15 -14 23 -66 74
-169 354 -192 521 -10 75 -12 307 -3 350 4 19 10 54 13 77 17 130 96 343 168
451 15 24 28 45 28 47 0 27 234 282 300 328 14 9 48 33 77 53 30 20 58 32 64
28 8 -4 9 -3 5 4 -18 29 287 149 429 169 22 3 60 9 85 12 25 4 62 7 83 8 l37
0 0 -576z m205 564 c28 -4 59 -8 70 -10 34 -5 149 -35 170 -44 11 -5 40 -17
65 -26 47 -18 211 -102 220 -114 3 -3 17 -12 31 -19 14 -8 39 -25 55 -38 78
-65 130 -112 158 -143 17 -19 40 -44 51 -55 33 -34 75 -94 75 -105 0 -6 4 -11
9 -11 19 0 117 -185 157 -295 25 -67 55 -186 68 -267 15 -90 14 -326 -2 -418
-108 -619 -608 -1074 -1224 -1116 l-58 -3 0 583 0 584 26 6 c42 11 92 66 105
116 23 86 -13 169 -88 205 l-42 20 -1 581 0 581 53 -2 c28 -1 75 -6 102 -10z
m-8003 -867 c48 -11 88 -25 88 -30 0 -4 6 -8 13 -8 17 0 94 -54 139 -96 38
-35 106 -132 100 -142 -2 -2 0 -8 5 -11 13 -9 34 -86 40 -149 23 -255 -176
-487 -454 -527 l-43 -6 0 496 c0 379 3 495 12 495 7 0 52 -10 100 -22z m15728
-469 l0 -490 -42 6 c-144 21 -271 93 -357 202 -149 188 -125 464 53 626 87 78
212 135 324 145 l22 2 0 -491z m-7828 140 c34 -25 67 -89 68 -132 0 -40 -34
-102 -72 -128 -25 -18 -46 -24 -90 -24 -48 0 -62 5 -95 31 -21 17 -38 35 -39
40 0 5 -6 22 -12 37 -16 39 -15 73 4 113 19 41 62 77 81 69 8 -2 12 -1 8 4
-18 30 103 21 147 -10z m-102 -4222 l0 -384 -439 1 -439 1 3 35 c37 385 399
700 838 728 l37 3 0 -384z m224 358 c80 -17 131 -34 221 -77 249 -117 438
-376 460 -631 l3 -37 -429 1 -429 2 0 383 0 383 48 -4 c26 -2 82 -11 126 -20z"/>
<path d="M2890 8099 c-19 -4 -53 -10 -75 -12 -119 -14 -329 -94 -480 -184
-102 -61 -247 -192 -345 -313 -25 -30 -48 -56 -52 -58 -5 -2 -8 -8 -8 -14 0
-5 -13 -28 -28 -51 -81 -120 -161 -331 -191 -504 -18 -104 -22 -354 -8 -423 3
-14 8 -43 12 -65 11 -78 67 -256 97 -313 10 -18 18 -37 18 -41 0 -8 64 -118
102 -175 118 -176 321 -353 523 -454 70 -35 204 -86 257 -98 10 -2 28 -7 41
-10 26 -6 50 -10 132 -23 73 -11 279 -11 337 -1 24 5 61 10 83 13 52 8 197 50
258 76 26 11 47 17 47 13 0 -4 4 -2 8 4 4 6 29 21 57 34 27 13 83 47 124 74
41 28 81 56 89 61 9 6 26 20 38 33 11 12 24 22 27 22 20 0 247 267 247 291 0
4 6 14 13 21 20 20 85 150 113 224 68 180 92 326 89 529 -2 88 -5 170 -8 181
-3 12 -8 37 -11 55 -3 19 -13 59 -21 89 -9 30 -18 63 -20 73 -2 10 -11 31 -19
48 -8 16 -11 27 -7 25 21 -13 -141 289 -169 314 -3 3 -18 23 -34 45 -32 45
-233 245 -245 245 -4 0 -19 9 -32 21 -99 86 -377 207 -536 234 -143 24 -345
30 -423 14z m340 -52 c88 -16 112 -21 178 -39 40 -11 90 -27 110 -36 20 -9 39
-16 42 -17 25 -4 138 -66 219 -119 97 -64 237 -191 296 -270 17 -22 40 -51 53
-67 12 -15 22 -30 22 -34 0 -4 9 -19 19 -34 26 -37 84 -153 110 -221 63 -164
90 -322 86 -505 -3 -150 -8 -186 -41 -315 -25 -98 -27 -104 -63 -181 -11 -25
-21 -51 -21 -58 0 -6 -5 -11 -11 -11 -5 0 -8 -4 -5 -8 3 -5 -6 -25 -19 -45
-14 -20 -25 -41 -25 -46 0 -6 -4 -11 -10 -11 -5 0 -10 -5 -10 -11 0 -21 -92
-139 -173 -221 -173 -178 -364 -289 -601 -352 -125 -34 -160 -38 -321 -40
-364 -5 -688 131 -947 397 -54 55 -98 104 -98 108 0 4 -11 20 -24 36 -35 42
-121 196 -156 279 -33 79 -75 231 -85 304 -11 79 -13 283 -4 350 14 104 16
111 34 185 108 426 435 782 851 923 73 25 90 29 214 51 89 16 311 21 380 8z"/>
<path d="M2983 6830 c-40 -24 -56 -54 -59 -105 -4 -104 101 -168 188 -115 18
11 29 20 24 20 -6 0 -2 6 7 13 10 6 20 29 24 50 18 114 -90 195 -184 137z"/>
<path d="M2895 3879 c-22 -4 -58 -9 -80 -11 -106 -13 -309 -87 -430 -156 -54
-31 -125 -80 -179 -122 -50 -39 -197 -191 -237 -245 -24 -33 -46 -62 -49 -65
-22 -22 -121 -223 -149 -305 -59 -166 -81 -312 -75 -500 4 -161 7 -181 49
-355 18 -71 90 -237 143 -325 30 -51 115 -169 132 -185 3 -3 33 -35 68 -72 34
-36 62 -63 62 -60 0 4 4 2 8 -4 9 -13 147 -124 155 -124 3 0 34 -17 68 -38
106 -64 297 -137 414 -158 122 -22 362 -26 470 -9 86 15 225 54 301 86 43 19
82 32 87 31 4 -1 7 2 7 7 0 5 10 13 23 17 24 7 197 121 238 156 114 100 193
187 266 298 63 94 101 169 146 291 40 105 52 153 74 284 9 53 10 305 2 375
-23 196 -133 483 -229 597 -5 7 -10 17 -10 23 0 5 -4 10 -8 10 -12 0 -42 56
-34 65 4 5 2 5 -4 2 -6 -3 -29 15 -52 41 -49 58 -71 80 -108 112 -55 47 -159
125 -186 139 -15 8 -36 22 -47 32 -10 10 -22 15 -25 12 -3 -4 -6 0 -6 7 0 7
-3 11 -6 7 -4 -3 -33 7 -66 24 -76 38 -213 83 -320 105 -89 18 -344 26 -413
13z m375 -58 c36 -7 79 -16 95 -21 17 -5 41 -11 55 -14 14 -2 39 -10 55 -17
17 -7 32 -13 35 -14 236 -80 477 -271 631 -501 105 -155 183 -355 213 -545 14
-86 14 -311 1 -404 -13 -89 -72 -278 -115 -365 -48 -101 -50 -104 -117 -200
-70 -100 -90 -123 -103 -115 -5 3 -7 0 -5 -7 9 -23 -171 -182 -271 -239 -242
-139 -417 -189 -670 -194 -78 -2 -163 1 -190 6 -27 5 -62 12 -79 15 -166 28
-379 123 -528 233 -107 80 -304 292 -325 351 -3 8 -11 22 -18 30 -19 22 -80
149 -108 223 -28 74 -55 174 -62 232 -3 22 -9 57 -14 78 -9 42 -6 292 4 347 3
19 8 46 10 60 12 67 51 194 84 270 33 77 115 227 131 240 3 3 19 25 36 49 67
99 329 331 373 331 6 0 12 4 14 8 5 13 150 80 242 112 179 62 447 84 626 51z"/>
<path d="M2990 2584 c-36 -15 -70 -70 -70 -113 0 -93 95 -154 182 -118 53 22
77 62 74 125 -4 59 -22 87 -73 108 -41 17 -68 17 -113 -2z"/>
<path d="M6893 6845 c-127 -55 -72 -256 66 -242 119 13 152 174 48 237 -37 23
-70 25 -114 5z"/>
<path d="M11338 6825 c-50 -34 -68 -89 -47 -148 43 -126 225 -108 246 24 6 42
-3 73 -30 102 -50 54 -111 62 -169 22z"/>
<path d="M6883 2590 c-60 -36 -77 -105 -44 -173 24 -49 54 -65 116 -63 62 2
105 44 112 108 13 109 -94 183 -184 128z"/>
<path d="M11343 2581 c-61 -38 -79 -109 -43 -168 71 -117 255 -55 237 79 -12
88 -118 136 -194 89z"/>
<path d="M15095 8090 c-164 -29 -264 -63 -409 -138 -90 -46 -229 -143 -271
-188 -12 -13 -25 -24 -29 -24 -17 0 -184 -202 -229 -278 -85 -145 -158 -331
-182 -469 -23 -134 -28 -366 -11 -468 30 -173 88 -339 168 -480 50 -89 131
-202 156 -218 6 -4 12 -14 12 -22 0 -7 4 -15 9 -17 5 -1 38 -30 73 -63 105
-97 184 -154 308 -221 111 -61 300 -122 430 -141 105 -15 355 -8 460 12 118
23 355 113 415 157 6 5 44 30 85 57 76 50 102 72 199 164 62 60 201 241 201
262 0 8 4 15 9 15 5 0 14 15 22 33 7 17 16 34 20 37 11 9 77 182 99 262 59
215 64 436 16 676 -35 171 -135 382 -259 547 -34 45 -222 235 -232 235 -4 0
-25 14 -48 32 -100 79 -302 175 -451 214 -161 42 -399 52 -561 24z m443 -50
c30 -7 59 -13 65 -14 113 -24 297 -100 407 -168 319 -198 547 -551 604 -936
35 -231 -3 -518 -95 -719 -16 -35 -29 -65 -29 -68 0 -11 -80 -139 -129 -205
-51 -70 -180 -202 -253 -261 -108 -86 -312 -186 -454 -223 -133 -34 -224 -44
-369 -41 -154 3 -320 35 -431 81 -18 8 -35 13 -36 12 -4 -2 -151 74 -158 82
-3 3 -21 14 -40 24 -57 32 -150 106 -226 181 -168 167 -296 392 -353 624 -27
109 -33 160 -36 302 -8 361 134 709 390 962 52 51 113 107 138 125 73 53 209
132 218 126 5 -3 9 -2 9 3 0 21 207 89 340 112 119 21 348 21 438 1z"/>
<path d="M15242 6840 c-60 -37 -79 -125 -39 -183 68 -101 219 -56 225 68 3 51
-27 102 -73 121 -47 19 -74 18 -113 -6z"/>
<path d="M15149 3880 c-14 -4 -48 -10 -75 -13 -169 -20 -425 -135 -602 -270
-36 -28 -222 -217 -222 -227 0 -5 -3 -10 -7 -10 -5 0 -16 -12 -25 -28 -10 -15
-31 -47 -48 -72 -87 -133 -174 -354 -196 -498 -3 -20 -8 -48 -11 -62 -14 -68
-10 -319 8 -420 75 -436 349 -810 736 -1004 40 -20 75 -36 78 -36 3 1 18 -6
33 -15 28 -16 194 -65 219 -65 8 0 12 -3 10 -7 -6 -9 9 -10 252 -16 90 -3 177
-1 195 3 17 5 49 11 71 14 93 12 295 83 386 134 53 30 143 85 149 92 3 3 23
18 45 34 122 90 282 277 363 426 35 63 91 189 102 225 1 6 4 15 6 20 9 29 36
142 39 169 3 17 9 54 14 81 12 64 7 332 -9 410 -35 177 -85 317 -161 450 -46
81 -119 183 -159 226 -8 8 -27 29 -41 45 -54 61 -177 161 -269 219 -129 81
-310 152 -465 181 -94 18 -369 27 -416 14z m351 -55 c14 -3 39 -7 55 -9 114
-15 331 -100 461 -182 295 -185 527 -529 589 -874 4 -19 9 -46 11 -60 12 -60
10 -323 -3 -397 -60 -355 -235 -644 -528 -871 -27 -21 -91 -57 -97 -54 -5 1
-8 -3 -8 -9 0 -20 -275 -137 -360 -152 -14 -3 -36 -8 -50 -11 -65 -14 -115
-19 -245 -21 -271 -3 -505 67 -737 221 -142 95 -291 248 -383 394 -89 142
-169 358 -191 520 -9 61 -11 313 -3 350 4 19 10 54 13 78 3 24 11 62 17 85 6
23 13 49 14 57 6 27 53 144 82 205 126 260 348 484 606 611 90 44 249 97 330
110 23 3 62 9 87 13 51 9 302 6 340 -4z"/>
<path d="M15243 2590 c-44 -26 -62 -65 -58 -125 3 -43 8 -54 38 -80 61 -53
146 -41 187 28 38 62 15 148 -49 182 -40 20 -79 19 -118 -5z"/>
</g>
</svg>
