<?xml version="1.0" encoding="iso-8859-1"?>
<!-- Generator: Adobe Illustrator 19.0.0, SVG Export Plug-In . SVG Version: 6.00 Build 0)  -->
<svg xmlns="http://www.w3.org/2000/svg" xmlns:xlink="http://www.w3.org/1999/xlink" version="1.1" id="Capa_1" x="0px" y="0px" viewBox="0 0 512 512" style="enable-background:new 0 0 512 512;" xml:space="preserve" width="512px" height="512px">
<g>
	<g>
		<g>
			<path d="M373.333,106.667c-16.747,0-32,5.781-44.416,15.168l-12.053-12.053c-4.16-4.16-10.923-4.16-15.083,0     c-4.16,4.16-4.16,10.923,0,15.083l12.053,12.053c-7.211,9.749-12.288,21.184-14.101,33.728h147.179     c-1.813-12.544-6.891-24-14.101-33.728l12.053-12.053c4.16-4.16,4.16-10.923,0-15.083c-4.16-4.16-10.923-4.16-15.083,0     l-12.053,12.053C405.333,112.448,390.08,106.667,373.333,106.667z" fill="#1f4e79"/>
			<path d="M415.531,384c-9.6-0.128-18.197-4.523-23.979-11.371c-2.624-3.093-7.552-1.515-7.552,2.56v40.832     c0,5.888-4.779,10.667-10.667,10.667H96c-5.888,0-10.667-4.779-10.667-10.667V53.355c0-5.888,4.779-10.667,10.667-10.667h277.333     c5.888,0,10.667,4.779,10.667,10.667v33.067c8.405,0.981,16.768,2.688,24.917,5.952c3.328,1.344,7.125,0.875,10.069-1.131     l2.411-1.344c3.264-1.92,5.269-5.419,5.269-9.216V42.667C426.667,11.371,382.016,0,352,0H117.333     C87.317,0,42.667,11.371,42.667,42.667v426.667c0,31.296,44.651,42.667,74.667,42.667H352c30.016,0,74.667-11.371,74.667-42.667     v-74.667C426.667,388.587,421.611,384.085,415.531,384z M266.667,469.333h-64c-5.888,0-10.667-4.779-10.667-10.667     S196.779,448,202.667,448h64c5.888,0,10.667,4.779,10.667,10.667S272.555,469.333,266.667,469.333z" fill="#1f4e79"/>
			<path d="M458.667,192c-5.888,0-10.667,4.779-10.667,10.667V192H298.667v10.667c0-5.888-4.779-10.667-10.667-10.667     s-10.667,4.779-10.667,10.667V288c0,5.888,4.779,10.667,10.667,10.667s10.667-4.779,10.667-10.667     c0,13.888,8.939,25.621,21.333,30.037V352c0,5.888,4.779,10.667,10.667,10.667s10.667-4.779,10.667-10.667v-32h64v32     c0,5.888,4.779,10.667,10.667,10.667c5.888,0,10.667-4.779,10.667-10.667v-33.963C439.061,313.621,448,301.888,448,288     c0,5.888,4.779,10.667,10.667,10.667s10.667-4.779,10.667-10.667v-85.333C469.333,196.779,464.555,192,458.667,192z" fill="#1f4e79"/>
		</g>
	</g>
</g>
<g>
</g>
<g>
</g>
<g>
</g>
<g>
</g>
<g>
</g>
<g>
</g>
<g>
</g>
<g>
</g>
<g>
</g>
<g>
</g>
<g>
</g>
<g>
</g>
<g>
</g>
<g>
</g>
<g>
</g>
</svg>
