<?xml version="1.0" encoding="UTF-8" standalone="no"?>
<!-- Created with Inkscape (http://www.inkscape.org/) -->
<svg
   xmlns:dc="http://purl.org/dc/elements/1.1/"
   xmlns:cc="http://web.resource.org/cc/"
   xmlns:rdf="http://www.w3.org/1999/02/22-rdf-syntax-ns#"
   xmlns:svg="http://www.w3.org/2000/svg"
   xmlns="http://www.w3.org/2000/svg"
   xmlns:sodipodi="http://inkscape.sourceforge.net/DTD/sodipodi-0.dtd"
   xmlns:inkscape="http://www.inkscape.org/namespaces/inkscape"
   width="841.88976pt"
   height="595.27559pt"
   id="svg2"
   sodipodi:version="0.32"
   inkscape:version="0.42"
   sodipodi:docbase="/home/xuacu/Wikipedia/Out"
   sodipodi:docname="Rinkhockey_diagram.svg">
  <defs
     id="defs4" />
  <sodipodi:namedview
     id="base"
     pagecolor="#ffffff"
     bordercolor="#666666"
     borderopacity="1.0"
     inkscape:pageopacity="0.0"
     inkscape:pageshadow="2"
     inkscape:zoom="0.60938539"
     inkscape:cx="375.00000"
     inkscape:cy="462.85714"
     inkscape:document-units="px"
     inkscape:current-layer="layer1"
     inkscape:window-width="984"
     inkscape:window-height="745"
     inkscape:window-x="53"
     inkscape:window-y="0" />
  <metadata
     id="metadata7">
    <rdf:RDF>
      <cc:Work
         rdf:about="">
        <dc:format>image/svg+xml</dc:format>
        <dc:type
           rdf:resource="http://purl.org/dc/dcmitype/StillImage" />
        <dc:subject>
          <rdf:Bag>
            <rdf:li>Rink hockey</rdf:li>
          </rdf:Bag>
        </dc:subject>
        <dc:creator>
          <cc:Agent>
            <dc:title>Xuacu</dc:title>
          </cc:Agent>
        </dc:creator>
        <cc:license
           rdf:resource="http://creativecommons.org/licenses/GPL/2.0/" />
      </cc:Work>
      <cc:License
         rdf:about="http://creativecommons.org/licenses/GPL/2.0/">
        <cc:permits
           rdf:resource="http://web.resource.org/cc/Reproduction" />
        <cc:permits
           rdf:resource="http://web.resource.org/cc/Distribution" />
        <cc:requires
           rdf:resource="http://web.resource.org/cc/Notice" />
        <cc:permits
           rdf:resource="http://web.resource.org/cc/DerivativeWorks" />
        <cc:requires
           rdf:resource="http://web.resource.org/cc/ShareAlike" />
        <cc:requires
           rdf:resource="http://web.resource.org/cc/SourceCode" />
      </cc:License>
    </rdf:RDF>
  </metadata>
  <g
     inkscape:label="Layer 1"
     inkscape:groupmode="layer"
     id="layer1">
    <path
       style="fill:#000000"
       d="M 41.638436,626.45833 C 35.985362,625.72343 30.206666,622.68301 25.918613,618.18743 C 21.688814,613.75295 19.410356,608.94516 18.606140,602.75739 C 17.808487,596.61999 17.818735,147.46845 18.616661,141.32514 C 20.226805,128.92859 29.854528,119.28030 42.216052,117.67536 C 48.517280,116.85724 1003.7860,116.85011 1010.0839,117.66812 C 1022.4804,119.27828 1032.1287,128.90600 1033.7336,141.26751 C 1034.5543,147.58890 1034.5543,596.57733 1033.7336,602.89873 C 1032.1287,615.26025 1022.4804,624.88797 1010.0839,626.49811 C 1004.3609,627.24147 47.360222,627.20213 41.638436,626.45833 z M 470.14973,622.56220 C 470.73600,621.97593 470.91203,599.33779 470.91203,524.53199 L 470.91203,427.26410 L 466.46484,421.72122 C 458.67374,412.01071 453.90639,402.67196 450.71551,390.86987 C 449.20414,385.27981 449.07121,383.76097 449.07121,372.08312 C 449.07121,360.40526 449.20414,358.88644 450.71551,353.29638 C 453.90639,341.49430 458.67374,332.15555 466.46484,322.44500 L 470.91203,316.90217 L 470.91203,219.58499 C 470.91203,138.26557 470.76990,122.14985 470.04732,121.55017 C 469.40758,121.01922 413.42559,120.87503 254.85638,120.99594 L 40.530151,121.15937 L 36.718651,122.69190 C 31.505065,124.78820 25.736743,130.55653 23.640439,135.77012 L 22.107901,139.58162 L 22.107901,372.08312 L 22.107901,604.58462 L 23.571370,608.20658 C 25.274197,612.42099 29.697941,617.61120 33.472555,619.82327 C 39.702446,623.47423 24.441946,623.23724 256.22929,623.28269 C 421.21856,623.31504 469.55969,623.15223 470.14973,622.56220 z M 356.69408,488.52445 C 355.40081,487.23118 355.75639,483.70807 357.26146,482.90259 C 360.59836,481.11673 364.06882,484.57947 362.04213,487.67260 C 360.89184,489.42817 358.05042,489.88075 356.69408,488.52445 z M 95.007151,487.49524 C 94.392301,487.10478 94.181261,477.01196 94.054271,441.92579 L 93.891151,396.85787 L 89.566281,396.54025 C 86.157581,396.28991 85.013701,395.93708 84.166651,394.87469 C 83.575541,394.13332 81.519671,392.52441 79.598031,391.29933 C 71.821243,386.34148 68.022364,380.03516 68.022364,372.08312 C 68.022364,364.13108 71.821243,357.82475 79.598031,352.86692 C 81.519671,351.64183 83.575541,350.03291 84.166651,349.29156 C 85.013701,348.22916 86.157581,347.87634 89.566281,347.62600 L 93.891151,347.30837 L 94.054271,302.24046 C 94.181261,267.15426 94.392301,257.06147 95.007151,256.67099 C 95.441511,256.39515 126.68435,256.16508 164.43567,256.15971 C 216.98531,256.15228 233.25313,256.32868 233.83673,256.91230 C 234.42400,257.49955 234.59903,283.94572 234.59903,372.08312 C 234.59903,460.22053 234.42400,486.66668 233.83673,487.25395 C 233.25313,487.83756 216.98531,488.01396 164.43567,488.00651 C 126.68435,488.00118 95.441511,487.77109 95.007151,487.49524 z M 230.46990,372.08312 L 230.46990,260.27912 L 164.40390,260.27912 L 98.337901,260.27912 L 98.173001,290.91630 L 98.008111,321.55348 L 99.761131,321.92141 C 105.75340,323.17905 107.65892,323.80911 111.37421,325.76128 C 121.10290,330.87314 128.79207,340.75418 132.83780,353.34325 C 134.82961,359.54116 135.50003,364.26040 135.50003,372.08312 C 135.50003,379.90584 134.82961,384.62511 132.83780,390.82300 C 128.79207,403.41206 121.10290,413.29308 111.37421,418.40495 C 107.65989,420.35662 105.74749,420.98905 99.767221,422.24331 L 98.020281,422.60970 L 98.020281,452.98372 C 98.020281,469.68944 98.212191,483.54963 98.446731,483.78419 C 98.681261,484.01874 128.48243,484.13784 164.67154,484.04889 L 230.46990,483.88712 L 230.46990,372.08312 z M 105.35083,417.11905 C 110.02734,415.69350 116.90115,410.72972 120.68154,406.04829 C 135.81509,387.30770 135.81509,356.85855 120.68154,338.11796 C 115.43833,331.62506 106.56189,326.30683 100.19693,325.84482 L 98.337901,325.70987 L 98.173571,371.44787 C 98.083161,396.60377 98.157291,417.57351 98.338291,418.04731 C 98.692251,418.97388 99.706491,418.83961 105.35083,417.11905 z M 107.20306,394.47206 C 107.03471,394.03334 106.97221,383.67467 107.06419,371.45279 C 107.22352,350.27980 107.28777,349.22034 108.42579,349.00134 C 109.08270,348.87491 109.86445,349.15695 110.16300,349.62806 C 110.77354,350.59145 110.94021,392.69997 110.33969,394.26491 C 109.88094,395.46043 107.63915,395.60849 107.20306,394.47206 z M 94.208781,372.06809 C 94.208781,356.17232 94.010511,350.20678 93.476211,350.02868 C 92.286081,349.63197 86.610241,350.52368 85.917751,351.21619 C 84.642101,352.49183 83.883291,360.27476 83.883291,372.08312 C 83.883291,383.94926 84.642511,391.67482 85.935731,392.96804 C 86.653781,393.68609 92.143011,394.53177 93.414721,394.12026 C 94.029551,393.92131 94.208781,388.94374 94.208781,372.06809 z M 82.751861,390.34656 C 82.739541,389.73512 82.462731,385.37573 82.136741,380.65900 C 81.757481,375.17125 81.772171,368.67756 82.177561,362.62571 C 82.526011,357.42414 82.661081,353.01829 82.477741,352.83495 C 81.838001,352.19523 78.889311,353.99619 75.668951,356.99356 C 68.786627,363.39930 66.835528,372.44168 70.631099,380.34137 C 73.664182,386.65410 82.829991,394.22007 82.751861,390.34656 z M 357.04347,261.18111 C 355.74967,260.42753 355.52174,256.81412 356.69408,255.64180 C 357.95763,254.37824 360.84119,254.73594 361.93065,256.29134 C 363.23758,258.15727 363.17804,259.06775 361.64903,260.59675 C 360.25668,261.98909 358.75732,262.17933 357.04347,261.18111 z M 524.11651,536.96456 C 524.20514,489.64128 524.04074,450.68535 523.75123,450.39583 C 523.46169,450.10632 520.68032,449.58032 517.57037,449.22693 C 503.54563,447.63333 490.68074,442.50465 479.22641,433.94086 C 476.98627,432.26600 474.91378,431.04379 474.62085,431.22483 C 474.32794,431.40587 474.08828,474.35931 474.08828,526.67694 C 474.08828,600.32393 474.26206,621.97368 474.85801,622.56961 C 475.43980,623.15141 481.52759,623.29874 499.79158,623.17310 L 523.95540,623.00687 L 524.11651,536.96456 z M 577.50698,622.56220 C 578.09311,621.97608 578.26928,599.81445 578.26928,526.67694 C 578.26928,474.35931 578.02964,431.40587 577.73673,431.22483 C 577.44380,431.04379 575.37131,432.26600 573.13117,433.94086 C 561.70614,442.48275 548.80757,447.63383 534.88060,449.21632 C 531.82201,449.56385 529.04167,450.01994 528.70204,450.22983 C 528.00155,450.66278 527.80881,622.20177 528.50804,622.90100 C 528.74096,623.13392 539.68949,623.32450 552.83811,623.32450 C 570.58512,623.32450 576.94109,623.12810 577.50698,622.56220 z M 1015.6389,621.47432 C 1020.8525,619.37805 1026.6207,613.60973 1028.7171,608.39612 L 1030.2496,604.58462 L 1030.2496,372.08312 L 1030.2496,139.58162 L 1028.7171,135.77012 C 1026.6207,130.55653 1020.8525,124.78820 1015.6389,122.69190 L 1011.8274,121.15937 L 797.50117,120.99594 C 638.93198,120.87503 582.95000,121.01922 582.31026,121.55017 C 581.58768,122.14985 581.44553,138.26557 581.44553,219.58499 L 581.44553,316.90217 L 585.89274,322.44500 C 593.68384,332.15555 598.45116,341.49430 601.64207,353.29638 C 603.15343,358.88644 603.28637,360.40526 603.28637,372.08312 C 603.28637,383.76097 603.15343,385.27981 601.64207,390.86987 C 598.45116,402.67196 593.68384,412.01071 585.89274,421.72122 L 581.44553,427.26410 L 581.44553,524.53199 C 581.44553,599.66154 581.62009,621.97446 582.21244,622.56680 C 582.80908,623.16344 630.58148,623.29742 797.40334,623.17028 L 1011.8274,623.00687 L 1015.6389,621.47432 z M 690.31544,487.67260 C 688.28874,484.57947 691.75923,481.11673 695.09614,482.90259 C 696.60118,483.70807 696.95672,487.23118 695.66348,488.52445 C 694.30716,489.88075 691.46575,489.42817 690.31544,487.67260 z M 818.52083,487.25395 C 817.41188,486.14501 817.41188,258.02122 818.52083,256.91230 C 819.10444,256.32868 835.37224,256.15228 887.92189,256.15971 C 925.67324,256.16508 956.91610,256.39515 957.35038,256.67099 C 957.96526,257.06147 958.17631,267.15426 958.30325,302.24046 L 958.46642,347.30837 L 962.79127,347.62600 C 966.19999,347.87634 967.34386,348.22916 968.19089,349.29156 C 968.78204,350.03291 970.83794,351.64183 972.75955,352.86692 C 980.53639,357.82475 984.33519,364.13108 984.33519,372.08312 C 984.33519,380.03516 980.53639,386.34148 972.75955,391.29933 C 970.83794,392.52441 968.78204,394.13332 968.19089,394.87469 C 967.34386,395.93708 966.19999,396.28991 962.79127,396.54025 L 958.46642,396.85787 L 958.30325,441.92579 C 958.17631,477.01196 957.96526,487.10478 957.35038,487.49524 C 956.91610,487.77109 925.67324,488.00118 887.92189,488.00651 C 835.37224,488.01396 819.10444,487.83756 818.52083,487.25395 z M 954.18452,453.24994 L 954.34948,422.61276 L 952.59640,422.24484 C 946.60415,420.98720 944.69861,420.35712 940.98340,418.40495 C 931.25462,413.29308 923.56547,403.41206 919.51980,390.82300 C 917.52797,384.62511 916.85753,379.90584 916.85753,372.08312 C 916.85753,364.26040 917.52797,359.54116 919.51980,353.34325 C 923.56547,340.75418 931.25462,330.87314 940.98340,325.76128 C 944.69861,323.80911 946.60415,323.17905 952.59640,321.92141 L 954.34948,321.55348 L 954.18452,290.91630 L 954.01967,260.27912 L 887.95365,260.27912 L 821.88765,260.27912 L 821.72460,371.44787 C 821.63496,432.59069 821.69797,482.97527 821.86461,483.41365 C 822.10555,484.04721 835.68790,484.17748 888.09367,484.04890 L 954.01967,483.88712 L 954.18452,453.24994 z M 954.01967,372.07442 L 954.01967,325.70987 L 952.16065,325.84482 C 945.79576,326.30683 936.91927,331.62506 931.67599,338.11796 C 912.41409,361.97091 918.58351,402.79697 943.38548,415.60557 C 946.38019,417.15208 951.58766,418.73948 953.06680,418.55672 C 953.90396,418.45326 954.01967,412.81153 954.01967,372.07442 z M 942.03077,394.29850 C 941.42146,392.71067 941.57591,350.60435 942.19457,349.62806 C 942.49309,349.15695 943.27481,348.87500 943.93180,349.00150 C 945.07441,349.22156 945.12617,350.22222 945.12617,372.09183 C 945.12617,394.90874 945.12365,394.95248 943.77776,395.14451 C 942.98239,395.25801 942.26587,394.91098 942.03077,394.29850 z M 966.43981,392.95007 C 967.71545,391.67442 968.47429,383.89148 968.47429,372.08312 C 968.47429,360.27476 967.71545,352.49183 966.43981,351.21619 C 965.74733,350.52368 960.07145,349.63197 958.88138,350.02868 C 958.34704,350.20679 958.14880,356.17599 958.14880,372.08312 C 958.14880,387.99023 958.34704,393.95947 958.88138,394.13756 C 960.07145,394.53426 965.74733,393.64255 966.43981,392.95007 z M 972.77698,390.41148 C 985.47359,381.94985 987.24469,366.81870 976.68869,356.99356 C 973.46819,353.99619 970.51958,352.19523 969.87982,352.83495 C 969.69649,353.01829 969.83152,357.42414 970.18001,362.62571 C 970.58542,368.67756 970.60012,375.17125 970.22086,380.65900 C 969.45394,391.75634 969.44911,391.45825 970.39484,391.45825 C 970.84120,391.45825 971.91314,390.98720 972.77698,390.41148 z M 690.70853,260.59675 C 689.17956,259.06775 689.11997,258.15727 690.42693,256.29134 C 691.51639,254.73594 694.39997,254.37824 695.66348,255.64180 C 696.90483,256.88314 696.60556,260.45585 695.19703,261.20965 C 693.37361,262.18551 692.12712,262.01530 690.70853,260.59675 z M 523.95540,372.08312 L 523.95540,298.39412 L 519.82628,298.54984 C 505.51613,299.08954 487.91822,306.62124 476.78809,316.96963 L 474.08828,319.47984 L 474.08828,371.61597 C 474.08828,400.29083 474.26257,424.20629 474.47560,424.76142 C 475.04390,426.24241 483.58166,432.93704 488.75611,435.95909 C 498.67267,441.75066 513.54732,446.22027 521.73203,445.86786 L 523.95540,445.77212 L 523.95540,372.08312 z M 541.56791,444.45860 C 553.72896,441.93720 566.73347,435.38617 575.25184,427.49026 L 578.26928,424.69331 L 578.26928,372.08657 L 578.26928,319.47984 L 575.56947,316.96963 C 564.43935,306.62124 546.84142,299.08954 532.53128,298.54984 L 528.40215,298.39412 L 528.23864,371.44787 C 528.14869,411.62744 528.22382,444.89187 528.40558,445.36882 C 528.78400,446.36184 534.19202,445.98787 541.56791,444.45860 z M 470.59440,372.08312 C 470.59440,336.57656 470.41206,325.11972 469.84387,324.93032 C 468.70848,324.55186 462.87920,333.16214 459.42442,340.32062 C 449.79051,360.28255 449.79051,383.88369 459.42442,403.84562 C 462.87920,411.00412 468.70848,419.61438 469.84387,419.23593 C 470.41206,419.04654 470.59440,407.58968 470.59440,372.08312 z M 586.59278,414.80369 C 601.97674,393.16678 604.44481,364.17333 592.93316,340.32062 C 589.47842,333.16221 583.64911,324.55187 582.51370,324.93027 C 581.94766,325.11892 581.72278,336.56642 581.59884,371.50076 C 581.50846,396.97696 581.57096,418.17845 581.73771,418.61519 C 582.32853,420.16254 583.35623,419.35574 586.59278,414.80369 z M 479.80553,309.79876 C 490.54777,301.72476 503.82267,296.50145 517.57037,294.93931 C 520.68032,294.58594 523.46169,294.05994 523.75123,293.77041 C 524.04074,293.48088 524.20514,254.52497 524.11651,207.20169 L 523.95540,121.15937 L 499.89032,120.99283 C 482.65574,120.87357 475.57869,121.03088 474.95675,121.54706 C 474.22938,122.15072 474.08828,137.71862 474.08828,217.37166 C 474.08828,269.67876 474.27109,312.65830 474.49452,312.88174 C 474.98103,313.36825 475.31225,313.17597 479.80553,309.79876 z M 578.26928,217.44004 C 578.26928,137.72918 578.12820,122.15072 577.40082,121.54706 C 576.77889,121.03088 569.70184,120.87357 552.46726,120.99283 L 528.40215,121.15937 L 528.24105,207.20169 C 528.15244,254.52497 528.31684,293.48088 528.60636,293.77041 C 528.89586,294.05994 531.67725,294.58594 534.78721,294.93931 C 548.81195,296.53291 561.67684,301.66160 573.13117,310.22541 C 575.37131,311.90023 577.44380,313.12243 577.73673,312.94141 C 578.02964,312.76038 578.26928,269.78476 578.26928,217.44004 z "
       id="path1349" />
  </g>
</svg>
